<?xml version="1.0" encoding="utf-8"?>
<!-- Generator: Adobe Illustrator 28.2.0, SVG Export Plug-In . SVG Version: 6.00 Build 0)  -->
<svg version="1.1" id="Layer_1" xmlns="http://www.w3.org/2000/svg" xmlns:xlink="http://www.w3.org/1999/xlink" x="0px" y="0px"
	 viewBox="0 0 156 50" style="enable-background:new 0 0 156 50;" xml:space="preserve">
<style type="text/css">
	.st0{fill:#FFFFFF;}
	.st1{fill:#DABB26;}
</style>
<path class="st0" d="M69.6,6l-7.2,11.6l7.1,12.2h-9.8L54.8,21v8.8h-8.5V6.1h8.5v8.9l5-8.9h9.8V6z"/>
<path class="st0" d="M93.9,29.7h-8.8l-6.3-10.2v10.2h-8.5V6.1H79l6.3,10.8V6h8.6C93.9,6,93.9,29.7,93.9,29.7z"/>
<path class="st0" d="M119.5,29.7h-8.9l-0.8-3.1h-5.7l-0.8,3.1h-8.8l8-23.7h9.2L119.5,29.7z M108.4,20.9l-1.3-5.1l-1.4,5.1H108.4z"/>
<path class="st0" d="M143.9,29.7h-8.8l-6.3-10.2v10.2h-8.5V6.1h8.6l6.3,10.8V6h8.6L143.9,29.7L143.9,29.7z"/>
<path class="st0" d="M154.9,29.7h-8.6V6.1h8.6V29.7z"/>
<g>
	<path class="st0" d="M54,43.3c-0.3,0.1-0.5,0.2-0.8,0.3c-0.6,0.2-1.2,0.2-1.5,0.2c-1.5,0-2.7-0.6-3.7-1.5c-1-1-1.5-2.2-1.5-3.6
		c0-1.5,0.5-2.7,1.5-3.7c1-1.1,2.3-1.5,3.9-1.5c0.8,0,1.5,0.1,2.2,0.5v3.2c-0.4-0.3-1-0.5-1.8-0.5c-0.6,0-1.1,0.2-1.4,0.5
		c-0.4,0.4-0.6,0.8-0.6,1.5c0,0.6,0.2,1.1,0.6,1.5s0.9,0.6,1.5,0.6c0.4,0,0.7-0.1,1.1-0.2c0.4-0.1,0.6-0.2,0.7-0.4L54,43.3L54,43.3z
		"/>
	<path class="st0" d="M65.1,38.7c0,1.5-0.5,2.8-1.5,3.8c-1.1,1-2.2,1.5-3.8,1.5c-1.5,0-2.6-0.6-3.7-1.5c-1-1.1-1.5-2.2-1.5-3.7
		c0-1.5,0.5-2.6,1.5-3.7c1-1,2.2-1.5,3.7-1.5c1.5,0,2.7,0.5,3.7,1.5C64.7,36,65.1,37.2,65.1,38.7z M61.7,38.6c0-0.5-0.2-1-0.5-1.4
		c-0.4-0.3-0.8-0.5-1.3-0.5c-0.5,0-1,0.2-1.3,0.7c-0.3,0.4-0.5,0.9-0.5,1.4c0,0.5,0.2,1,0.5,1.4c0.3,0.4,0.8,0.6,1.3,0.6
		c0.5,0,0.9-0.2,1.3-0.7C61.5,39.6,61.7,39.1,61.7,38.6z"/>
	<path class="st0" d="M75.6,43.5H72l-2.5-4.2v4.2H66v-9.7h3.5l2.6,4.4v-4.4h3.5C75.6,33.8,75.6,43.5,75.6,43.5z"/>
	<path class="st0" d="M84.2,40.2c0,1.2-0.5,2-1.4,2.7c-0.8,0.6-1.6,0.9-2.7,0.9c-0.6,0-1.2-0.1-1.5-0.2c-0.7-0.2-1.4-0.5-2.1-1
		l0.8-2.5c0.4,0.3,0.7,0.5,0.9,0.7c0.7,0.4,1.3,0.6,1.8,0.6c0.2,0,0.4,0,0.6-0.1c0.2-0.1,0.3-0.3,0.3-0.5c0-0.4-0.3-0.6-0.9-0.6
		c-1.1-0.1-1.8-0.5-2.4-1s-0.9-1.2-0.9-2c0-1,0.5-1.8,1.4-2.5c0.9-0.7,1.7-1,2.8-0.9c1.4,0.1,2.4,0.4,3.2,0.9l-0.9,2
		c0,0-0.2-0.2-0.7-0.3c-0.5-0.2-1-0.3-1.5-0.4c-0.2,0-0.4,0-0.6,0.1s-0.3,0.3-0.3,0.4c0,0.2,0.2,0.4,0.5,0.5
		c0.2,0.1,0.4,0.1,0.6,0.2c0.9,0.1,1.5,0.4,2.1,1C84,38.8,84.2,39.4,84.2,40.2z"/>
	<path class="st0" d="M92.4,36.8h-2.1v6.8h-3.4v-6.8h-2v-3h7.5C92.4,33.8,92.4,36.8,92.4,36.8z"/>
	<path class="st0" d="M102.1,43.5h-3.9l-1.7-3.3v3.3h-3.4v-9.7h5c1.1,0,1.8,0.2,2.5,0.6c0.8,0.5,1.2,1.3,1.2,2.3
		c0,0.7-0.2,1.3-0.5,1.7c-0.3,0.3-0.6,0.6-1,0.8c-0.4,0.2-0.5,0.2-0.6,0.2L102.1,43.5z M98.1,37.2c0-0.5-0.4-0.8-1-0.8h-0.8v1.6h0.8
		c0.3,0,0.5-0.1,0.7-0.2C98,37.7,98.1,37.5,98.1,37.2z"/>
	<path class="st0" d="M111.6,39.8c0,2.7-1.5,4-4.4,4c-1.5,0-2.7-0.4-3.4-1.2c-0.7-0.7-1.1-1.6-1.1-2.9v-5.9h3.5v5.9c0,0.7,0.3,1,1,1
		c0.6,0,1-0.3,1-1v-5.9h3.5L111.6,39.8L111.6,39.8z"/>
	<path class="st0" d="M119.8,43.3c-0.3,0.1-0.5,0.2-0.8,0.3c-0.6,0.2-1.2,0.2-1.5,0.2c-1.5,0-2.7-0.6-3.7-1.5c-1-1-1.5-2.2-1.5-3.6
		c0-1.5,0.5-2.7,1.5-3.7c1-1.1,2.3-1.5,3.9-1.5c0.8,0,1.5,0.1,2.2,0.5v3.2c-0.4-0.3-1-0.5-1.8-0.5c-0.6,0-1.1,0.2-1.4,0.5
		c-0.4,0.4-0.6,0.8-0.6,1.5c0,0.6,0.2,1.1,0.6,1.5c0.4,0.4,0.9,0.6,1.5,0.6c0.4,0,0.7-0.1,1.1-0.2c0.4-0.1,0.6-0.2,0.7-0.4
		L119.8,43.3L119.8,43.3z"/>
	<path class="st0" d="M128,36.8h-2.1v6.8h-3.4v-6.8h-2v-3h7.5C128,33.8,128,36.8,128,36.8z"/>
	<path class="st0" d="M132.7,43.5h-3.5v-9.7h3.5V43.5z"/>
	<path class="st0" d="M144.3,38.7c0,1.5-0.5,2.8-1.5,3.8c-1.1,1-2.2,1.5-3.8,1.5c-1.5,0-2.6-0.6-3.7-1.5c-1-1.1-1.5-2.2-1.5-3.7
		c0-1.5,0.5-2.6,1.5-3.7c1-1,2.2-1.5,3.7-1.5s2.7,0.5,3.7,1.5C143.8,36,144.3,37.2,144.3,38.7z M140.8,38.6c0-0.5-0.2-1-0.5-1.4
		s-0.7-0.6-1.2-0.6s-1,0.2-1.3,0.7c-0.3,0.4-0.5,0.9-0.5,1.4c0,0.5,0.2,1,0.5,1.4s0.8,0.6,1.3,0.6s0.9-0.2,1.3-0.7
		C140.7,39.6,140.8,39.1,140.8,38.6z"/>
	<path class="st0" d="M154.8,43.5h-3.6l-2.5-4.2v4.2h-3.5v-9.7h3.6l2.6,4.4v-4.4h3.5L154.8,43.5L154.8,43.5z"/>
</g>
<path class="st0" d="M16.8,5.9c1,0.7,2,1.2,2.9,1.7c2.2,1.2,4.3,2.5,6.5,3.7s4.2,2.4,6.4,3.6c0.3,0.2,0.4,0.4,0.4,0.8
	c0,0.5,0,1.2,0,1.7c0,0.3,0.1,0.5,0.4,0.8c0.9,0.4,1.7,1,2.5,1.4c1,0.5,2,1.1,2.9,1.6c0.3,0.2,0.4,0.4,0.4,0.8c0,3.7,0,7.5,0,11.2
	c0,3.4,0,6.7,0,10c0,0.1,0,0.2,0,0.3c0,0.4,0,0.4-0.4,0.4c-1.3,0-2.7,0-4,0c-1.2,0-1.1,0.1-1.1-1.1c0-0.1,0-0.2,0-0.3
	c0-0.3,0.1-0.4,0.4-0.4c0.5,0,1.2,0,1.7,0c0.5,0,1.1,0,1.7,0c0-0.2,0-0.4,0-0.5c0-6.3,0-12.5,0-18.8c0-0.3-0.1-0.5-0.4-0.8
	c-1.3-0.8-2.6-1.5-3.9-2.3c0,0-0.1,0-0.2-0.1c0,1,0,2,0,2.9c-0.4,0-4.1-2-4.6-2.4c0.4-0.2,0.8-0.4,1.2-0.7s0.8-0.4,1.2-0.7
	c0.3-0.2,0.5-0.4,0.4-0.8c0-0.5,0-1.1,0-1.5s-0.1-0.7-0.4-0.8c-1.1-0.5-2.2-1.2-3.1-1.8c-1.8-1.1-3.7-2.2-5.6-3.1
	C20.6,9.8,19,9,17.4,8c-0.1-0.1-0.2-0.1-0.4-0.2c0,0.2,0,0.4,0,0.7c0,1.8,0,3.6,0,5.4c0,0.7,0,0.7-0.7,0.9c-1.6,0.7-3.3,1.3-4.9,1.8
	c-0.2,0.1-0.4,0.2-0.5,0.5C10,19.3,9,21.4,8.1,23.6c-0.3,0.8-0.7,1.5-1,2.2c0,0.1-0.1,0.1-0.2,0.2c0-0.1,0-0.3,0-0.4
	c0-4.6,0-9,0-13.6c0-0.4,0.1-0.8,0.5-1c2.5-1.4,4.9-2.7,7.3-4.1c0.7-0.4,1.3-0.8,2-1.2C16.6,5.9,16.7,5.9,16.8,5.9z"/>
<path class="st1" d="M17.6,15.6c0.3,0.1,0.4,0.2,0.7,0.3c2,1.1,3.9,2.1,5.9,3.1c2.8,1.5,5.7,3,8.6,4.6c0.2,0.1,0.4,0.3,0.4,0.5
	c0,2.3,0,4.6,0,6.8c0,0.1,0,0.2-0.1,0.4c-0.5-0.2-1.2-0.3-1.7-0.5c-0.8-0.2-1.5-0.5-2.4-0.8c-0.5-0.2-0.5-0.2-0.5-0.8
	c0-0.7,0-1.3,0-2c0-0.2-0.1-0.4-0.3-0.5c-1.8-0.8-3.6-1.4-5.4-2.2c-0.1,0-0.2-0.1-0.4-0.1c0,0.1-0.1,0.3-0.1,0.4c0,3.9,0,7.7,0,11.6
	c0,0.8,0,0.8,0.9,0.9c1.6,0.2,3.1,0.4,4.8,0.7c0.2,0,0.3,0,0.7,0c0-0.9,0-1.7,0-2.7c0.2,0,0.4,0,0.5,0c1.3,0.2,2.5,0.5,3.8,0.8
	c0.3,0.1,0.4,0.2,0.4,0.4c0,2.3,0,4.6,0,6.8c0,0.4-0.1,0.4-0.5,0.4c-2.5,0-5,0-7.5,0c-2.3,0-4.6,0-6.9,0c-0.7,0-0.7,0-0.7-0.7
	c0-9,0-18.1,0-27.1C17.6,16,17.6,15.9,17.6,15.6z"/>
<path class="st1" d="M16.7,15.7c0,0.2,0.1,0.4,0.1,0.7c0,2,0,4,0,6c0,0.5,0,0.5-0.5,0.8c-0.7,0.2-1.3,0.4-2.1,0.5
	c-0.2,0.1-0.4,0.2-0.5,0.4c-1,2.2-1.8,4.4-2.8,6.6c-0.1,0.3-0.1,0.5,0,0.9c1,1.7,1.8,3.6,2.8,5.3c0.1,0.2,0.2,0.3,0.5,0.3
	c0.8-0.1,1.4-0.1,2.2-0.2c0.3,0,0.4,0,0.4,0.3c0,0.2,0,0.5,0,0.8c0,1.8,0,3.6,0,5.4c0,0.5,0,0.5-0.5,0.5c-1.4,0-2.8,0-4.2,0
	c-0.3,0-0.5-0.1-0.8-0.4c-1-2-2-3.9-3-5.9c-0.4-0.8-0.9-1.5-1.3-2.4c-0.3-0.5-0.3-0.5-0.9-0.4c-0.1,0-0.1,0-0.2,0.1
	c0,0.2,0,0.4,0,0.5c0,2.6,0,5.2,0,7.8c0,0.7,0,0.7-0.7,0.7c-1.2,0-2.3,0-3.5,0c-0.5,0-0.5,0-0.5-0.5c0-2.4,0-4.7,0-7
	c0-4.8,0-9.4,0-14.2c0-0.7,0-0.7,0.7-1c1.2-0.4,2.3-0.9,3.5-1.3c0.1-0.1,0.3-0.1,0.5-0.1c0,3,0,6,0,8.9c0.7,0.1,0.9,0,1.1-0.5
	c1.5-3.4,2.9-6.8,4.4-10.2c0.1-0.3,0.3-0.4,0.5-0.5c1.5-0.5,2.9-1.1,4.4-1.6C16.4,15.7,16.5,15.7,16.7,15.7z"/>
</svg>
