<?xml version="1.0" encoding="utf-8"?>
<!-- Generator: Adobe Illustrator 28.2.0, SVG Export Plug-In . SVG Version: 6.00 Build 0)  -->
<svg version="1.1" id="Layer_1" xmlns="http://www.w3.org/2000/svg" xmlns:xlink="http://www.w3.org/1999/xlink" x="0px" y="0px"
	 viewBox="0 0 156 47" style="enable-background:new 0 0 156 47;" xml:space="preserve">
<style type="text/css">
	.st0{fill:#DDBC00;}
</style>
<g>
	<g>
		<path d="M52.1,33h-5.7V12h5.7l5.4,7.7l5.4-7.7h5.7v21h-6v-6.8c0-1.4,0-3,0.1-4.9h-0.1c-0.5,0.8-1.4,2.1-2.8,4l-2.5,3.5l-2.5-3.5
			c-0.9-1.3-1.8-2.6-2.8-4h-0.1c0,1.9,0.1,3.6,0.1,4.9L52.1,33L52.1,33z"/>
		<path d="M71.2,22.5c0-3.1,1.1-5.7,3.3-7.8c2.2-2.1,5-3.1,8.5-3.1c2.1,0,4,0.4,5.8,1.2v5.9C86.9,17.6,85,17,83.1,17
			c-1.8,0-3.2,0.5-4.3,1.5c-1.1,1-1.6,2.3-1.6,3.9s0.5,2.9,1.6,4s2.6,1.6,4.4,1.6c2,0,3.9-0.6,5.9-1.8v5.9c-1.8,0.8-3.8,1.2-6.1,1.2
			c-3.5,0-6.3-1-8.5-3.1C72.3,28.2,71.2,25.6,71.2,22.5z"/>
		<path d="M90.1,33l8.5-21h5.9l8.5,21h-6.5l-1.5-4.3h-7.2L96.3,33H90.1z M101.5,18.4L101.5,18.4c-0.4,1.3-0.9,2.6-1.4,3.9l-0.7,2
			h4.1l-0.7-2C102.4,21.2,102,19.9,101.5,18.4z"/>
		<path d="M120.4,33h-5.7V12h5.7l5.4,7.7l5.4-7.7h5.7v21h-6v-6.8c0-1.4,0-3,0.1-4.9h-0.1c-0.5,0.8-1.4,2.1-2.8,4l-2.5,3.5l-2.5-3.5
			c-0.9-1.3-1.8-2.6-2.8-4h-0.1c0,1.9,0.1,3.6,0.1,4.9V33H120.4z"/>
		<path d="M140.3,31.9v-5.6c1.2,0.7,2.4,1.2,3.7,1.6s2.4,0.5,3.2,0.5c1.4,0,2.1-0.5,2.1-1.5c0-0.3-0.1-0.5-0.2-0.7s-0.3-0.4-0.6-0.5
			s-0.6-0.3-0.9-0.3c-0.3-0.1-0.7-0.2-1.3-0.4c-0.6-0.2-1-0.3-1.4-0.4c-1.8-0.6-3.1-1.4-4-2.3s-1.4-2.2-1.4-3.8c0-2,0.7-3.6,2.2-4.9
			c1.4-1.2,3.3-1.8,5.7-1.8c2.5,0,4.8,0.5,6.8,1.5v5.5c-1.2-0.7-2.4-1.2-3.7-1.5c-1.3-0.4-2.3-0.6-3.1-0.6c-1.2,0-1.9,0.4-1.9,1.3
			c0,0.3,0.1,0.5,0.2,0.7c0.1,0.2,0.3,0.3,0.6,0.5c0.3,0.1,0.6,0.2,0.8,0.3c0.3,0.1,0.7,0.2,1.2,0.4c0.5,0.2,1,0.3,1.4,0.4
			c1.8,0.6,3.2,1.4,4.1,2.4c0.9,1,1.4,2.3,1.4,3.9c0,2.1-0.8,3.7-2.3,5c-1.5,1.2-3.5,1.8-5.9,1.8C144.6,33.3,142.4,32.8,140.3,31.9z
			"/>
	</g>
	<g>
		<g>
			<path d="M46.2,42.1v-5.6h1.7c0.8,0,1.4,0.1,1.8,0.3c0.4,0.3,0.7,0.6,0.7,1.1s-0.3,0.9-0.8,1.1l0,0c0.7,0.2,1.1,0.7,1.1,1.4
				s-0.3,1.1-1,1.4c-0.4,0.2-1,0.3-1.7,0.3H46.2z M47.7,38.7H48c0.5,0,0.7-0.2,0.7-0.5c0-0.2-0.1-0.3-0.2-0.4
				c-0.1-0.1-0.3-0.1-0.6-0.1h-0.2V38.7z M47.7,40.8H48c0.4,0,0.7,0,0.8-0.1s0.2-0.2,0.2-0.4c0-0.4-0.3-0.5-0.8-0.5h-0.5V40.8z"/>
			<path d="M51.5,41.2c-0.3-0.4-0.4-1-0.4-1.8v-2.9h1.6v2.8c0,0.5,0.1,0.9,0.2,1.1c0.2,0.2,0.4,0.4,0.8,0.4c0.3,0,0.6-0.1,0.8-0.3
				s0.3-0.6,0.3-1.1v-2.8h1.5v2.9c0,0.8-0.2,1.4-0.5,1.8c-0.2,0.3-0.5,0.5-0.9,0.6c-0.4,0.2-0.8,0.2-1.2,0.2c-0.5,0-0.9-0.1-1.3-0.2
				C52,41.8,51.8,41.5,51.5,41.2z"/>
			<path d="M57.1,42.1v-5.6h1.6v5.6H57.1z"/>
			<path d="M59.5,42.1v-5.6h1.6v4.2h2.3V42L59.5,42.1L59.5,42.1z"/>
			<path d="M64,42.1v-5.6h1.6c1.2,0,2,0.2,2.6,0.6c0.6,0.5,1,1.2,1,2.1c0,0.9-0.3,1.5-0.8,2c-0.6,0.5-1.5,0.8-2.7,0.8H64V42.1z
				 M65.5,40.7L65.5,40.7c0.9,0,1.4-0.2,1.7-0.5c0.2-0.2,0.3-0.5,0.3-1s-0.2-0.9-0.5-1.1c-0.3-0.2-0.8-0.3-1.5-0.3h-0.1L65.5,40.7
				L65.5,40.7z"/>
			<path d="M69.8,42.1v-5.6h1.6v5.6H69.8z"/>
			<path d="M76.1,42.1l-1.5-2c-0.3-0.4-0.6-0.8-0.9-1.2l0,0c0,0.6,0,1.1,0,1.4v1.8h-1.5v-5.6h1.5l1.5,2c0.3,0.4,0.6,0.8,0.9,1.2l0,0
				c0-0.6,0-1.1,0-1.4v-1.8h1.5v5.6H76.1z"/>
			<path d="M78.2,39.3c0-0.8,0.3-1.5,0.9-2.1c0.6-0.5,1.3-0.8,2.2-0.8c0.6,0,1.2,0.1,1.7,0.4v1.5c-0.6-0.3-1.1-0.5-1.6-0.5
				s-0.9,0.1-1.2,0.4c-0.3,0.3-0.4,0.6-0.4,1.1c0,0.4,0.1,0.8,0.4,1.1s0.7,0.4,1.1,0.4c0.1,0,0.2,0,0.3,0v-0.6H81V39h2.3v2.7
				c-0.6,0.3-1.2,0.4-1.9,0.4c-0.9,0-1.7-0.3-2.3-0.8C78.5,40.8,78.2,40.1,78.2,39.3z"/>
			<path d="M85.9,41.8v-1.5c0.3,0.2,0.6,0.3,1,0.4c0.3,0.1,0.6,0.1,0.8,0.1c0.4,0,0.6-0.1,0.6-0.4c0-0.1,0-0.1,0-0.2
				c0-0.1-0.1-0.1-0.2-0.1S87.9,40,87.9,40c-0.1,0-0.2-0.1-0.3-0.1c-0.1,0-0.3-0.1-0.4-0.1c-0.5-0.2-0.8-0.4-1.1-0.6
				c-0.2-0.2-0.4-0.6-0.4-1c0-0.5,0.2-1,0.6-1.3s0.9-0.5,1.5-0.5c0.7,0,1.3,0.1,1.8,0.4v1.5c-0.3-0.2-0.6-0.3-1-0.4
				c-0.3-0.1-0.6-0.1-0.8-0.1c-0.3,0-0.5,0.1-0.5,0.3c0,0.1,0,0.1,0,0.2c0,0,0.1,0.1,0.2,0.1s0.1,0.1,0.2,0.1s0.2,0.1,0.3,0.1
				c0.1,0,0.3,0.1,0.4,0.1c0.5,0.2,0.8,0.4,1.1,0.6c0.3,0.3,0.4,0.6,0.4,1c0,0.6-0.2,1-0.6,1.3s-0.9,0.5-1.6,0.5
				C87.1,42.1,86.5,42,85.9,41.8z"/>
			<path d="M90.5,42.1v-5.6h3.6v1.3h-2v0.7h1.7v1.3h-1.7v0.9h2.1V42L90.5,42.1L90.5,42.1z"/>
			<path d="M94.9,42.1v-5.6h1.9c0.7,0,1.2,0.1,1.6,0.3c0.6,0.3,0.9,0.8,0.9,1.4c0,0.7-0.3,1.2-1,1.5l1.5,2.3H98l-1.2-2.1h-0.2V42
				L94.9,42.1L94.9,42.1z M96.5,38.9h0.4c0.3,0,0.5,0,0.6-0.1s0.2-0.2,0.2-0.4s-0.1-0.4-0.3-0.5c-0.1-0.1-0.4-0.1-0.7-0.1h-0.3v1.1
				H96.5z"/>
			<path d="M101.7,42.1l-2.1-5.6h1.7l0.8,2.2c0.2,0.5,0.3,1,0.5,1.3l0,0c0.2-0.4,0.3-0.9,0.5-1.4l0.8-2.2h1.6l-2.1,5.6h-1.7V42.1z"
				/>
			<path d="M105.8,42.1v-5.6h1.6v5.6H105.8z"/>
			<path d="M108,39.3c0-0.8,0.3-1.5,0.9-2.1c0.6-0.5,1.3-0.8,2.2-0.8c0.6,0,1.1,0.1,1.5,0.3v1.5c-0.5-0.3-1-0.5-1.5-0.5
				s-0.8,0.1-1.1,0.4c-0.3,0.3-0.4,0.6-0.4,1s0.1,0.8,0.4,1c0.3,0.3,0.7,0.4,1.2,0.4s1-0.2,1.5-0.5v1.6c-0.5,0.2-1,0.3-1.6,0.3
				c-0.9,0-1.7-0.3-2.2-0.8C108.3,40.8,108,40.1,108,39.3z"/>
			<path d="M113.4,42.1v-5.6h3.6v1.3h-2v0.7h1.7v1.3H115v0.9h2.1V42L113.4,42.1L113.4,42.1z"/>
			<path d="M117.9,41.8v-1.5c0.3,0.2,0.6,0.3,1,0.4c0.3,0.1,0.6,0.1,0.8,0.1c0.4,0,0.6-0.1,0.6-0.4c0-0.1,0-0.1,0-0.2
				c0-0.1-0.1-0.1-0.2-0.1s-0.2-0.1-0.2-0.1c-0.1,0-0.2-0.1-0.3-0.1c-0.1,0-0.3-0.1-0.4-0.1c-0.5-0.2-0.8-0.4-1.1-0.6
				c-0.2-0.2-0.4-0.6-0.4-1c0-0.5,0.2-1,0.6-1.3s0.9-0.5,1.5-0.5c0.7,0,1.3,0.1,1.8,0.4v1.5c-0.3-0.2-0.6-0.3-1-0.4
				c-0.3-0.1-0.6-0.1-0.8-0.1c-0.3,0-0.5,0.1-0.5,0.3c0,0.1,0,0.1,0,0.2c0,0,0.1,0.1,0.2,0.1s0.1,0.1,0.2,0.1s0.2,0.1,0.3,0.1
				c0.1,0,0.3,0.1,0.4,0.1c0.5,0.2,0.8,0.4,1.1,0.6c0.3,0.3,0.4,0.6,0.4,1c0,0.6-0.2,1-0.6,1.3s-0.9,0.5-1.6,0.5
				C119,42.1,118.4,42,117.9,41.8z"/>
			<path d="M124.3,42.1v-5.6h1.6v4.2h2.3V42L124.3,42.1L124.3,42.1z"/>
			<path d="M128.7,42.1v-5.6h1.6v5.6H128.7z"/>
			<path d="M132.7,42.1h-1.5v-5.6h1.5l1.4,2l1.4-2h1.5v5.6h-1.6v-1.8c0-0.4,0-0.8,0-1.3l0,0c-0.1,0.2-0.4,0.6-0.7,1.1L134,41
				l-0.7-0.9c-0.2-0.3-0.5-0.7-0.7-1.1l0,0c0,0.5,0,0.9,0,1.3v1.8H132.7z"/>
			<path d="M137.9,42.1v-5.6h1.6v5.6H137.9z"/>
			<path d="M141.7,42.1v-4.2H140v-1.3h5.1v1.3h-1.8v4.2H141.7z"/>
			<path d="M145.6,42.1v-5.6h3.6v1.3h-2v0.7h1.7v1.3h-1.7v0.9h2.1V42L145.6,42.1L145.6,42.1z"/>
			<path d="M150,42.1v-5.6h1.6c1.2,0,2,0.2,2.6,0.6c0.6,0.5,1,1.2,1,2.1c0,0.9-0.3,1.5-0.8,2c-0.6,0.5-1.5,0.8-2.7,0.8H150V42.1z
				 M151.6,40.7L151.6,40.7c0.9,0,1.4-0.2,1.7-0.5c0.2-0.2,0.3-0.5,0.3-1s-0.2-0.9-0.5-1.1c-0.3-0.2-0.8-0.3-1.5-0.3h-0.1v2.9H151.6
				z"/>
		</g>
	</g>
	<g>
		<path class="st0" d="M41.4,41.9c-0.3-0.1-0.6-0.1-0.9-0.2c-0.7-0.2-1.5-0.4-2.2-0.5c-0.1,0-0.2-0.1-0.2-0.1
			c-7.3-1.6-13.8-1-13.8-1c-0.4,0-0.8,0-1.3,0c-0.3,0-0.3-0.1-0.3-0.3c0-7.7,0-15.5,0-23.2c0-0.2,0.1-0.3,0.3-0.4
			c2.5-0.6,4.9-1.3,7.4-1.9c0.1,0,0.3,0,0.4,0.1c1.2,0.7,2.3,1.4,3.5,2.2c0.1,0.1,0.2,0.1,0.4,0.2c0-0.9,0-1.8,0-2.7
			c0-0.2-0.1-0.3-0.2-0.4c-3.8-1.9-7.7-3.8-11.5-5.6c-0.1,0-0.2-0.1-0.3,0c-1.5,0.5-3,1.1-4.5,1.6c-0.1,0-0.2,0.1-0.3,0.2
			c-1.3,2.4-2.5,4.7-3.8,7.1c-0.3,0.6-0.7,1.3-1.1,2c-0.1-0.1-0.1-0.2-0.1-0.2c-1.5-1.8-3.1-3.6-4.6-5.4C8,13,7.9,13,7.7,13.1
			c-1.4,0.5-2.8,1-4.2,1.5c-0.3,0.1-0.4,0.2-0.4,0.6c0,7.3,0,14.6,0,22c0,1.2,0,2.4,0,3.7c0,0.3-0.1,0.3-0.3,0.4
			c-0.6,0.1-1.3,0.3-1.9,0.4C0.4,41.8,0,42-0.5,42.1v0.1c14.1-0.5,28.2-0.5,42.3,0C41.6,42,41.5,41.9,41.4,41.9z M16.5,40
			c-2.4,0.1-4.8,0.2-7.2,0.4v-13h0.1c1.2,1.6,2.3,3.1,3.5,4.8c1.2-2,2.3-4,3.6-6V40z"/>
		<path d="M38,41c-7.3-1.6-13.8-1-13.8-1v-1.5c0-6.9,0-13.7,0-20.6c0-0.3,0.1-0.4,0.3-0.4c1.8-0.5,3.6-1,5.4-1.5c0.1,0,0.3,0,0.5,0
			c2.4,1.3,4.8,2.6,7.2,3.9c0.2,0.1,0.2,0.2,0.2,0.4v4.8v0.1c-2.5-1-5-2.1-7.6-3.1v13c2.5,0.2,5.1,0.3,7.7,0.5v3.2c0,0.7,0,1.3,0,2
			C38,40.9,38,41,38,41z"/>
		<path class="st0" d="M34,29c-0.3-0.1-0.7-0.2-1-0.3c-0.3-0.1-0.6-0.2-0.9-0.2c-0.1,0-0.2-0.1-0.2-0.2c0-1.1,0-2.3,0-3.4
			c0.3,0.1,0.6,0.2,0.9,0.3c0.4,0.1,0.8,0.3,1.1,0.4c0.1,0,0.2,0.1,0.2,0.2c0,1,0,2,0,3.1C34,28.9,34,28.9,34,29z"/>
		<path class="st0" d="M31.8,33c0-1.2,0-2.4,0-3.6c0.7,0.2,1.4,0.3,2.2,0.5c0,1.1,0,2.2,0,3.3C33.3,33.2,32.6,33.1,31.8,33z"/>
		<path class="st0" d="M34.7,30c0.7,0.2,1.3,0.3,2,0.5c0.1,0,0.2,0.1,0.2,0.2c0,0.9,0,1.9,0,2.8c0,0,0,0,0,0.1
			c-0.7-0.1-1.3-0.1-1.9-0.2c-0.1,0-0.2-0.1-0.2-0.1C34.6,32.2,34.7,31.1,34.7,30z"/>
		<path class="st0" d="M36.8,29.7c-0.7-0.2-1.4-0.3-2-0.5c-0.1,0-0.2-0.1-0.2-0.2c0-1,0-2,0-3.1c0.3,0.1,0.5,0.2,0.7,0.3
			c0.4,0.1,0.8,0.3,1.2,0.4c0.1,0,0.2,0.1,0.2,0.2C36.8,27.7,36.8,28.7,36.8,29.7z"/>
	</g>
</g>
</svg>
